<?xml version="1.0" encoding="utf-8"?>
<!-- Generator: Adobe Illustrator 19.0.0, SVG Export Plug-In . SVG Version: 6.00 Build 0)  -->
<svg version="1.1" id="Layer_1" xmlns="http://www.w3.org/2000/svg" xmlns:xlink="http://www.w3.org/1999/xlink" x="0px" y="0px"
	 viewBox="0 0 1280 1280" style="enable-background:new 0 0 1280 1280;" xml:space="preserve">
<style type="text/css">
	.st0{display:none;}
	.st1{fill:#383838;stroke:#FFFFFF;stroke-miterlimit:10;}
	.st2{fill:#F99245;}
	.st3{fill:#E8E8E8;}
	.st4{fill:#808080;}
</style>
<rect id="XMLID_114_" class="st0" width="1280" height="1280"/>
<rect id="XMLID_4_" x="1080.6" y="73.2" class="st1" width="103.9" height="436.6"/>
<rect id="XMLID_112_" x="1080.6" y="509.8" class="st2" width="103.9" height="739.4"/>
<rect id="XMLID_2_" x="748.7" y="73.2" class="st1" width="103.9" height="843.6"/>
<rect id="XMLID_1_" x="748.7" y="819.4" class="st2" width="103.9" height="429.7"/>
<rect id="XMLID_5_" x="421.4" y="73.2" class="st1" width="103.9" height="316.4"/>
<rect id="XMLID_3_" x="421.4" y="389.6" class="st2" width="103.9" height="859.5"/>
<rect id="XMLID_111_" x="106" y="73.2" class="st1" width="103.9" height="632.9"/>
<rect id="XMLID_110_" x="106" y="706.1" class="st2" width="103.9" height="543"/>
<rect id="XMLID_113_" x="994" y="441.6" class="st3" width="277" height="277"/>
<rect id="XMLID_128_" x="994" y="549" class="st4" width="277" height="62.3"/>
<rect id="XMLID_143_" x="665.6" y="682.9" class="st3" width="277" height="277"/>
<rect id="XMLID_142_" x="665.6" y="790.3" class="st4" width="277" height="62.3"/>
<rect id="XMLID_145_" x="334.9" y="251.1" class="st3" width="277" height="277"/>
<rect id="XMLID_144_" x="334.9" y="358.5" class="st4" width="277" height="62.3"/>
<rect id="XMLID_147_" x="19.4" y="553.8" class="st3" width="277" height="277"/>
<rect id="XMLID_146_" x="19.4" y="661.2" class="st4" width="277" height="62.3"/>
</svg>
