<?xml version="1.0" encoding="utf-8"?>
<!-- Generator: Adobe Illustrator 19.0.0, SVG Export Plug-In . SVG Version: 6.00 Build 0)  -->
<svg version="1.1" id="Layer_1" xmlns="http://www.w3.org/2000/svg" xmlns:xlink="http://www.w3.org/1999/xlink" x="0px" y="0px"
	 viewBox="0 0 800 150" style="enable-background:new 0 0 800 150;" xml:space="preserve">
<style type="text/css">
	.st0{fill:#505050;stroke:#FFFFFF;stroke-miterlimit:10;}
	.st1{fill:#F99245;}
	.st2{fill:#E8E8E8;}
	.st3{fill:#808080;}
	.st4{font-family:'Biko';}
	.st5{font-size:108.6934px;}
</style>
<rect id="XMLID_4_" x="761.3" y="20.8" class="st0" width="7.1" height="29.9"/>
<rect id="XMLID_112_" x="761.3" y="50.7" class="st1" width="7.1" height="50.6"/>
<rect id="XMLID_2_" x="738.6" y="20.8" class="st0" width="7.1" height="57.8"/>
<rect id="XMLID_1_" x="738.6" y="71.9" class="st1" width="7.1" height="29.4"/>
<rect id="XMLID_5_" x="716.1" y="20.8" class="st0" width="7.1" height="21.7"/>
<rect id="XMLID_3_" x="716.1" y="42.4" class="st1" width="7.1" height="58.9"/>
<rect id="XMLID_111_" x="694.6" y="20.8" class="st0" width="7.1" height="43.4"/>
<rect id="XMLID_110_" x="694.6" y="64.2" class="st1" width="7.1" height="37.2"/>
<rect id="XMLID_113_" x="755.4" y="46" class="st2" width="19" height="19"/>
<rect id="XMLID_128_" x="755.4" y="53.4" class="st3" width="19" height="4.3"/>
<rect id="XMLID_143_" x="732.9" y="62.5" class="st2" width="19" height="19"/>
<rect id="XMLID_142_" x="732.9" y="69.9" class="st3" width="19" height="4.3"/>
<rect id="XMLID_145_" x="710.2" y="33" class="st2" width="19" height="19"/>
<rect id="XMLID_144_" x="710.2" y="40.3" class="st3" width="19" height="4.3"/>
<rect id="XMLID_147_" x="688.6" y="53.7" class="st2" width="19" height="19"/>
<rect id="XMLID_146_" x="688.6" y="61" class="st3" width="19" height="4.3"/>
<text id="XMLID_6_" transform="matrix(1 0 0 1 29.9769 102.0505)" class="st4 st5">rental partner</text>
</svg>
